<?xml version="1.0" encoding="UTF-8"?>
<svg id="a" data-name="Layer 1" xmlns="http://www.w3.org/2000/svg" viewBox="0 0 47.66 47.5">
  <defs>
    <style>
      .b {
        stroke-width: 2px;
      }

      .b, .c {
        fill: #fff;
        stroke: #fff;
        stroke-miterlimit: 10;
      }
    </style>
  </defs>
  <circle class="b" cx="23.91" cy="23.75" r="10.57"/>
  <ellipse class="b" cx="24.01" cy="23.74" rx="6.46" ry="6.64"/>
  <ellipse class="b" cx="24.01" cy="23.74" rx="2.72" ry="2.79"/>
  <rect class="c" x="22.91" y="36.32" width="1.33" height="10.68" rx=".67" ry=".67" transform="translate(47.15 83.32) rotate(180)"/>
  <rect class="c" x="23.57" y=".5" width="1.33" height="10.68" rx=".67" ry=".67"/>
  <rect class="c" x="32.48" y="3.07" width="1.33" height="10.68" rx=".67" ry=".67" transform="translate(8.64 -15.45) rotate(30)"/>
  <rect class="c" x="38.92" y="9.74" width="1.33" height="10.68" rx=".67" ry=".67" transform="translate(32.85 -26.74) rotate(60)"/>
  <rect class="c" x="41.15" y="18.63" width="1.33" height="10.68" rx=".67" ry=".67" transform="translate(65.52 -18) rotate(89.63)"/>
  <rect class="c" x="38.58" y="27.65" width="1.33" height="10.68" rx=".67" ry=".67" transform="translate(87.45 15.5) rotate(120)"/>
  <rect class="c" x="31.9" y="34.09" width="1.33" height="10.68" rx=".67" ry=".67" transform="translate(80.49 57.29) rotate(150)"/>
  <rect class="c" x="22.91" y="36.32" width="1.33" height="10.68" rx=".67" ry=".67" transform="translate(47.15 83.32) rotate(180)"/>
  <rect class="c" x="22.91" y="36.32" width="1.33" height="10.68" rx=".67" ry=".67" transform="translate(47.15 83.32) rotate(180)"/>
  <rect class="c" x="22.91" y="36.32" width="1.33" height="10.68" rx=".67" ry=".67" transform="translate(47.15 83.32) rotate(180)"/>
  <rect class="c" x="13.84" y="3.45" width="1.33" height="10.68" rx=".67" ry=".67" transform="translate(31.47 9.15) rotate(150)"/>
  <rect class="c" x="7.41" y="10.13" width="1.33" height="10.68" rx=".67" ry=".67" transform="translate(25.51 16.21) rotate(120)"/>
  <rect class="c" x="5.17" y="19.01" width="1.33" height="10.68" rx=".67" ry=".67" transform="translate(30.23 18.67) rotate(90.37)"/>
  <rect class="c" x="7.74" y="28.04" width="1.33" height="10.68" rx=".67" ry=".67" transform="translate(33.11 9.41) rotate(60)"/>
  <rect class="c" x="14.42" y="34.47" width="1.33" height="10.68" rx=".67" ry=".67" transform="translate(21.93 -2.21) rotate(30)"/>
</svg>