<?xml version="1.0" encoding="UTF-8"?>
<svg id="a" data-name="Layer 1" xmlns="http://www.w3.org/2000/svg" viewBox="0 0 1366 768">
  <defs>
    <style>
      .b {
        fill: #fff;
      }

      .c {
        stroke: #000;
        stroke-miterlimit: 10;
        stroke-width: 3px;
      }
    </style>
  </defs>
  <g>
    <g>
      <path class="b" d="M487.28,567.11c-109.4,0-198.4-89-198.4-198.4s89-198.4,198.4-198.4,198.4,89,198.4,198.4-89,198.4-198.4,198.4Zm0-320.91c-67.55,0-122.51,54.96-122.51,122.51s54.96,122.51,122.51,122.51,122.51-54.96,122.51-122.51-54.96-122.51-122.51-122.51Z"/>
      <path d="M487.28,182.81c49.66,0,96.34,19.34,131.45,54.45,35.11,35.11,54.45,81.8,54.45,131.45s-19.34,96.34-54.45,131.45c-35.11,35.11-81.8,54.45-131.45,54.45s-96.34-19.34-131.45-54.45c-35.11-35.11-54.45-81.8-54.45-131.45s19.34-96.34,54.45-131.45c35.11-35.11,81.8-54.45,131.45-54.45m0,320.91c74.45,0,135.01-60.57,135.01-135.01s-60.57-135.01-135.01-135.01-135.01,60.57-135.01,135.01,60.57,135.01,135.01,135.01m0-345.91c-116.48,0-210.9,94.42-210.9,210.9s94.42,210.9,210.9,210.9,210.9-94.42,210.9-210.9-94.42-210.9-210.9-210.9h0Zm0,320.91c-60.76,0-110.01-49.25-110.01-110.01s49.25-110.01,110.01-110.01,110.01,49.25,110.01,110.01-49.25,110.01-110.01,110.01h0Z"/>
    </g>
    <g>
      <path class="b" d="M487.4,293.22c-42.38,0-76.74,34.36-76.74,76.74s34.36,76.74,76.74,76.74,76.74-34.36,76.74-76.74-34.36-76.74-76.74-76.74Zm0,130.99c-29.96,0-54.26-24.29-54.26-54.26s24.29-54.26,54.26-54.26,54.26,24.29,54.26,54.26-24.29,54.26-54.26,54.26Z"/>
      <path d="M487.4,293.22c-42.38,0-76.74,34.36-76.74,76.74s34.36,76.74,76.74,76.74,76.74-34.36,76.74-76.74-34.36-76.74-76.74-76.74h0Zm0,130.99c-29.96,0-54.26-24.29-54.26-54.26s24.29-54.26,54.26-54.26,54.26,24.29,54.26,54.26-24.29,54.26-54.26,54.26h0Z"/>
    </g>
  </g>
  <path class="c" d="M487.28,341.84c-14.84,0-26.87,12.03-26.87,26.87s12.03,26.87,26.87,26.87,26.87-12.03,26.87-26.87-12.03-26.87-26.87-26.87Zm0,42.64c-8.71,0-15.77-7.06-15.77-15.77s7.06-15.77,15.77-15.77,15.77,7.06,15.77,15.77-7.06,15.77-15.77,15.77Z"/>
  <circle class="c" cx="487.28" cy="368.71" r="2.9"/>
</svg>