<?xml version="1.0" encoding="UTF-8"?>
<svg id="a" data-name="Layer 1" xmlns="http://www.w3.org/2000/svg" viewBox="0 0 46.66 46.5">
  <defs>
    <style>
      .b {
        fill: #fff;
        stroke: #000;
        stroke-miterlimit: 10;
        stroke-width: 2px;
      }
    </style>
  </defs>
  <circle class="b" cx="23.41" cy="23.25" r="10.57"/>
  <ellipse class="b" cx="23.51" cy="23.24" rx="6.46" ry="6.64"/>
  <ellipse class="b" cx="23.51" cy="23.24" rx="2.72" ry="2.79"/>
  <rect x="22.41" y="35.82" width="1.33" height="10.68" rx=".67" ry=".67" transform="translate(46.15 82.32) rotate(180)"/>
  <rect x="23.07" y="0" width="1.33" height="10.68" rx=".67" ry=".67"/>
  <rect x="31.98" y="2.57" width="1.33" height="10.68" rx=".67" ry=".67" transform="translate(8.33 -15.27) rotate(30)"/>
  <rect x="38.42" y="9.24" width="1.33" height="10.68" rx=".67" ry=".67" transform="translate(32.17 -26.56) rotate(60)"/>
  <rect x="40.65" y="18.13" width="1.33" height="10.68" rx=".67" ry=".67" transform="translate(64.52 -18) rotate(89.63)"/>
  <rect x="38.08" y="27.15" width="1.33" height="10.68" rx=".67" ry=".67" transform="translate(86.27 15.18) rotate(120)"/>
  <rect x="31.4" y="33.59" width="1.33" height="10.68" rx=".67" ry=".67" transform="translate(79.31 56.6) rotate(150)"/>
  <rect x="22.41" y="35.82" width="1.33" height="10.68" rx=".67" ry=".67" transform="translate(46.15 82.32) rotate(180)"/>
  <rect x="22.41" y="35.82" width="1.33" height="10.68" rx=".67" ry=".67" transform="translate(46.15 82.32) rotate(180)"/>
  <rect x="22.41" y="35.82" width="1.33" height="10.68" rx=".67" ry=".67" transform="translate(46.15 82.32) rotate(180)"/>
  <rect x="13.34" y="2.95" width="1.33" height="10.68" rx=".67" ry=".67" transform="translate(30.28 8.47) rotate(150)"/>
  <rect x="6.91" y="9.63" width="1.33" height="10.68" rx=".67" ry=".67" transform="translate(24.32 15.89) rotate(120)"/>
  <rect x="4.67" y="18.51" width="1.33" height="10.68" rx=".67" ry=".67" transform="translate(29.23 18.67) rotate(90.37)"/>
  <rect x="7.24" y="27.54" width="1.33" height="10.68" rx=".67" ry=".67" transform="translate(32.43 9.59) rotate(60)"/>
  <rect x="13.92" y="33.97" width="1.33" height="10.68" rx=".67" ry=".67" transform="translate(21.61 -2.03) rotate(30)"/>
</svg>