<svg width="31" height="41" viewBox="0 0 31 41" fill="none" xmlns="http://www.w3.org/2000/svg">
<g id="today" clip-path="url(#clip0_242_49)">
<path id="Vector" d="M27.3826 5.08664H25.6628V3.3911C25.6628 2.45855 24.889 1.69556 23.9431 1.69556C22.9972 1.69556 22.2233 2.45855 22.2233 3.3911V5.08664H8.46533V3.3911C8.46533 2.45855 7.69144 1.69556 6.74558 1.69556C5.79972 1.69556 5.02583 2.45855 5.02583 3.3911V5.08664H3.30608C1.39716 5.08664 -0.116225 6.61263 -0.116225 8.47773L-0.133423 32.2153C-0.133423 34.0804 1.39716 35.6064 3.30608 35.6064H27.3826C29.2743 35.6064 30.8221 34.0804 30.8221 32.2153V8.47773C30.8221 6.61263 29.2743 5.08664 27.3826 5.08664ZM25.6628 32.2153H5.02583C4.07997 32.2153 3.30608 31.4523 3.30608 30.5198V13.5644H27.3826V30.5198C27.3826 31.4523 26.6087 32.2153 25.6628 32.2153ZM8.46533 16.9554H13.6246C14.5704 16.9554 15.3443 17.7184 15.3443 18.651V23.7376C15.3443 24.6702 14.5704 25.4332 13.6246 25.4332H8.46533C7.51947 25.4332 6.74558 24.6702 6.74558 23.7376V18.651C6.74558 17.7184 7.51947 16.9554 8.46533 16.9554Z" fill="white"/>
</g>
<defs>
<clipPath id="clip0_242_49">
<rect width="31" height="41" fill="white"/>
</clipPath>
</defs>
</svg>
