<?xml version="1.0" encoding="UTF-8"?>
<svg id="a" data-name="Layer 1" xmlns="http://www.w3.org/2000/svg" viewBox="0 0 15 19">
  <defs>
    <style>
      .b {
        fill: #2b3344;
      }
    </style>
  </defs>
  <path class="b" d="M15,2.5v14c0,1.38-1.12,2.5-2.5,2.5H4.5c-1.38,0-2.5-1.12-2.5-2.5v-1c0-.28,.22-.5,.5-.5s.5,.22,.5,.5v1c0,.83,.67,1.5,1.5,1.5h8c.83,0,1.5-.67,1.5-1.5V2.5c0-.83-.67-1.5-1.5-1.5H4.5c-.83,0-1.5,.67-1.5,1.5v1c0,.28-.22,.5-.5,.5s-.5-.22-.5-.5v-1C2,1.12,3.12,0,4.5,0h8c1.38,0,2.5,1.12,2.5,2.5h0ZM5.5,15c.07,0,.13-.01,.19-.04,.18-.08,.31-.26,.31-.46v-2.5h5.5c.28,0,.5-.22,.5-.5V7.5c0-.28-.22-.5-.5-.5H6v-2.5c0-.2-.12-.38-.31-.46-.19-.08-.4-.04-.54,.11L.15,9.15c-.09,.09-.15,.22-.15,.35s.06,.26,.15,.35l5,5c.09,.09,.22,.15,.35,.15h0Zm0,0"/>
</svg>